<svg width="32" height="32" viewBox="0 0 32 32" fill="none" xmlns="http://www.w3.org/2000/svg">
<g clip-path="url(#clip0_379_2554)">
<circle cx="16" cy="16" r="16" fill="#213147"/>
<path d="M5.34961 10.904V21.096C5.34961 21.7512 5.69281 22.344 6.26481 22.6768L15.0944 27.7728C15.656 28.0952 16.3528 28.0952 16.9144 27.7728L25.744 22.6768C26.3056 22.3544 26.6592 21.7512 26.6592 21.096V10.904C26.6592 10.2488 26.316 9.65601 25.744 9.32321L16.9144 4.22721C16.3528 3.90481 15.656 3.90481 15.0944 4.22721L6.26481 9.32321C5.70321 9.64561 5.36001 10.2488 5.36001 10.904H5.34961Z" fill="#213147"/>
<path d="M17.9244 17.976L16.666 21.4288C16.6348 21.5224 16.6348 21.6264 16.666 21.7304L18.8292 27.6688L21.3356 26.2232L18.33 17.976C18.2572 17.7888 17.9972 17.7888 17.9244 17.976Z" fill="#12AAFF"/>
<path d="M20.4511 12.1728C20.3783 11.9856 20.1183 11.9856 20.0455 12.1728L18.7871 15.6256C18.7559 15.7192 18.7559 15.8232 18.7871 15.9272L22.3335 25.6512L24.8399 24.2056L20.4511 12.1832V12.1728Z" fill="#12AAFF"/>
<path d="M15.9998 4.612C16.0622 4.612 16.1246 4.6328 16.1766 4.664L25.7238 10.176C25.8382 10.2384 25.9006 10.3632 25.9006 10.488V21.512C25.9006 21.6368 25.8278 21.7616 25.7238 21.824L16.1766 27.336C16.1246 27.3672 16.0622 27.388 15.9998 27.388C15.9374 27.388 15.875 27.3672 15.823 27.336L6.27576 21.824C6.16136 21.7616 6.09896 21.6368 6.09896 21.512V10.4776C6.09896 10.3528 6.17176 10.228 6.27576 10.1656L15.823 4.6536C15.875 4.6224 15.9374 4.6016 15.9998 4.6016V4.612ZM15.9998 3C15.6566 3 15.3238 3.0832 15.0118 3.26L5.46456 8.772C4.85096 9.1256 4.47656 9.7704 4.47656 10.4776V21.5016C4.47656 22.2088 4.85096 22.8536 5.46456 23.2072L15.0118 28.7192C15.3134 28.896 15.6566 28.9792 15.9998 28.9792C16.343 28.9792 16.6758 28.896 16.9878 28.7192L26.535 23.2072C27.1486 22.8536 27.523 22.2088 27.523 21.5016V10.4776C27.523 9.7704 27.1486 9.1256 26.535 8.772L16.9774 3.26C16.6758 3.0832 16.3326 3 15.9894 3H15.9998Z" fill="#9DCCED"/>
<path d="M9.67578 25.6616L10.5598 23.2488L12.3278 24.7152L10.6742 26.2336L9.67578 25.6616Z" fill="#213147"/>
<path d="M15.1883 9.69759H12.7651C12.5883 9.69759 12.4219 9.81199 12.3595 9.97839L7.16992 24.2056L9.67632 25.6512L15.3963 9.97839C15.4483 9.83279 15.3443 9.68719 15.1987 9.68719L15.1883 9.69759Z" fill="white"/>
<path d="M19.4306 9.69759H17.0074C16.8306 9.69759 16.6642 9.81199 16.6018 9.97839L10.6738 26.2232L13.1802 27.6688L19.6282 9.97839C19.6802 9.83279 19.5762 9.68719 19.4306 9.68719V9.69759Z" fill="white"/>
</g>
<defs>
<clipPath id="clip0_379_2554">
<rect width="32" height="32" fill="white"/>
</clipPath>
</defs>
</svg>
